<?xml version="1.0" standalone="no"?>
<svg viewBox="0 0 200 200" xmlns="http://www.w3.org/2000/svg">
  <path fill="#FF0066" d="M30.1,-46.1C42.8,-44.7,59.5,-44.4,66.9,-36.8C74.4,-29.3,72.5,-14.7,68.3,-2.4C64.1,9.8,57.4,19.6,51.7,30C45.9,40.4,41,51.4,32.5,58.2C24,65,12,67.6,0.5,66.6C-11,65.7,-21.9,61.3,-31.1,54.9C-40.2,48.5,-47.6,40.1,-53,30.6C-58.4,21.1,-61.9,10.6,-65.3,-2C-68.8,-14.6,-72.4,-29.2,-69.1,-42.4C-65.8,-55.6,-55.8,-67.4,-43.1,-68.8C-30.5,-70.1,-15.2,-61.1,-3.3,-55.4C8.7,-49.7,17.4,-47.4,30.1,-46.1Z" transform="translate(100 100)" />
</svg>
